<svg version="1" xmlns="http://www.w3.org/2000/svg" width="682.667" height="682.667" viewBox="0 0 512.000000 512.000000"><path d="M122.4 3.9c-.5.5-8.8 4.9-18.4 9.7-9.6 4.9-17.8 9.3-18.2 9.9-.4.5-.8.6-.8.2 0-.5-1.5 0-3.2 1.1C80 25.9 65.9 33.2 50.5 41c-15.4 7.9-32.5 16.6-38 19.4l-10 5.2.2 9.4c.1 9.1.8 26.9 1.8 50.5.2 6 .7 17.1 1 24.5.3 7.4.8 20 1.1 28 .3 8 .7 17 .8 20.1.2 3 .5 6 .9 6.6.3.5 8.9 5.8 18.9 11.7 10.1 5.9 24.4 14.4 31.8 18.8 7.4 4.4 15.5 9.2 18 10.5 2.5 1.4 5.2 3.1 6 3.7.8.7 2.6 1.7 4 2.4s3.4 1.8 4.5 2.4c2.7 1.8 8.3 5.1 19.7 11.9 8.7 5.1 9.9 5.6 12 4.5 1.2-.7 6.1-3.4 10.8-6.1 4.7-2.6 11.9-6.6 16-8.8 4.1-2.2 8.6-4.8 10-5.7 1.4-.9 5.4-3.2 9-5.1 3.6-1.9 6.7-3.6 7-3.9.5-.5 1.6-1.1 11-6.3 2.5-1.3 7-3.8 10-5.4 3-1.7 7.1-4 9-5.2 1.9-1.1 4.2-2.4 5-2.8.8-.4 4-2.1 7-3.9 7.6-4.3 15-8.5 18.3-10.1 1.5-.8 3.1-2.2 3.5-3.1.6-1.3.8-89.4.3-106.2-.1-1.9-.1-9.7-.1-17.3.1-8.7-.3-14.4-1-15.2-.6-.7-2.5-1.9-4.3-2.6-1.8-.7-3.9-1.8-4.7-2.4-.8-.7-6.2-3.7-12-6.7-13.8-7.3-23.1-12.3-42.5-22.8-8.8-4.7-16.7-8.9-17.5-9.3-.8-.4-3.5-1.9-6-3.3-14.6-8.3-28.8-15.2-29.6-14.5zM308.9 5.1c-.5.9-1.1 4-1.5 6.8-1.1 9-1 193.1.1 193.2 9.1.5 191.2-.1 193.6-.7 1.9-.4 3.7-.9 4.2-1 .4-.1 1.3-.2 2-.3 1-.1 1.2-20 1.2-99.6 0-54.7-.2-99.6-.5-99.6-.3-.1-45-.2-99.3-.3-91.9-.2-98.9-.1-99.8 1.5zM16.5 307.1c-4.4.4-9.1 1-10.5 1.3l-2.6.7v99.5c0 54.6.3 99.5.6 99.5.3.1 45.2.2 99.8.3 80.4.2 99.2-.1 99.3-1.1.1-.7.2-1.6.4-2.1.1-.4.5-2 1-3.5.4-1.5.8-46 .9-98.7.1-95.4.1-96-1.9-96.1-12.4-.4-181.1-.2-187 .2zM309.8 306.8c-2.1.3-2.8.9-2.9 2.5 0 1.2 0 44.1-.1 95.3 0 69.3.3 94.6 1.2 98.6l1.2 5.4h99.4c54.7 0 99.5-.3 99.5-.6.1-.3.2-45 .3-99.3.2-98.3.1-98.9-1.9-100-1.1-.6-2.1-.9-2.3-.8-.1.1-1.8-.1-3.7-.5-3.4-.6-185.4-1.2-190.7-.6z"/></svg>